<svg width="89" height="18" viewBox="0 0 89 18" fill="none" xmlns="http://www.w3.org/2000/svg">
<path d="M69.0217 13.6916H70.9763V0.477774H69.0217V13.6916ZM86.6265 5.23754L84.386 10.9666H84.3189L81.9936 5.23754H79.8882L83.3752 13.2445L81.3881 17.6987H83.4254L88.8 5.23754H86.6265ZM75.5422 12.1906C74.9012 12.1906 74.0087 11.8682 74.0087 11.0681C74.0087 10.0491 75.1201 9.65799 76.0806 9.65799C76.9395 9.65799 77.3449 9.84509 77.8665 10.0998C77.7147 11.3239 76.6703 12.1906 75.5422 12.1906ZM75.7779 4.94897C74.3628 4.94897 72.8963 5.5779 72.2909 6.97211L74.0255 7.70251C74.3963 6.97211 75.0866 6.73322 75.8114 6.73322C76.8222 6.73322 77.8498 7.34523 77.8665 8.43396V8.56926C77.5125 8.36526 76.7552 8.05978 75.8282 8.05978C73.9585 8.05978 72.0542 9.09672 72.0542 11.0342C72.0542 12.8026 73.5876 13.9421 75.3055 13.9421C76.6201 13.9421 77.3449 13.347 77.7995 12.6494H77.8665V13.6694H79.753V8.60309C79.753 6.25756 78.0184 4.94897 75.7779 4.94897ZM63.6985 6.84632H60.9185V2.31699H63.6985C65.1597 2.31699 65.9893 3.53785 65.9893 4.58113C65.9893 5.60538 65.1597 6.84632 63.6985 6.84632ZM63.6482 0.477774H58.965V13.6916H60.9185V8.68554H63.6482C65.8144 8.68554 67.9439 7.10212 67.9439 4.58113C67.9439 2.06013 65.8144 0.477774 63.6482 0.477774ZM38.11 12.1927C36.7598 12.1927 35.6296 11.0522 35.6296 9.4857C35.6296 7.90228 36.7598 6.74379 38.11 6.74379C39.4434 6.74379 40.4888 7.90228 40.4888 9.4857C40.4888 11.0522 39.4434 12.1927 38.11 12.1927ZM40.3547 5.97745H40.2866C39.8477 5.45 39.0045 4.97328 37.9413 4.97328C35.7134 4.97328 33.6719 6.94779 33.6719 9.4857C33.6719 12.0056 35.7134 13.9643 37.9413 13.9643C39.0045 13.9643 39.8477 13.4876 40.2866 12.9422H40.3547V13.5901C40.3547 15.3099 39.4434 16.2295 37.9748 16.2295C36.7765 16.2295 36.0339 15.3606 35.7301 14.6281L34.0259 15.3437C34.5151 16.536 35.815 18 37.9748 18C40.2698 18 42.2108 16.6375 42.2108 13.3174V5.24494H40.3547V5.97745ZM43.561 13.6916H45.5187V0.476717H43.561V13.6916ZM48.4034 9.33243C48.3531 7.59575 49.7368 6.70996 50.7319 6.70996C51.5092 6.70996 52.167 7.10106 52.3859 7.6634L48.4034 9.33243ZM54.4787 7.83358C54.1079 6.82941 52.9767 4.97328 50.6649 4.97328C48.3699 4.97328 46.4635 6.79453 46.4635 9.46879C46.4635 11.9887 48.3531 13.9643 50.8838 13.9643C52.9264 13.9643 54.1079 12.7043 54.5971 11.9718L53.0783 10.9497C52.5723 11.6991 51.88 12.1927 50.8838 12.1927C49.8887 12.1927 49.1796 11.7329 48.7239 10.8313L54.6809 8.34412L54.4787 7.83358ZM7.02012 6.35269V8.25956H11.542C11.4069 9.33243 11.0529 10.1157 10.5134 10.66C9.85456 11.3249 8.8249 12.0574 7.02012 12.0574C4.23491 12.0574 2.05827 9.79224 2.05827 6.98268C2.05827 4.17206 4.23491 1.90792 7.02012 1.90792C8.52219 1.90792 9.61888 2.50408 10.4286 3.27042L11.762 1.92483C10.6307 0.835045 9.12972 0 7.02012 0C3.20629 0 0 3.13406 0 6.98268C0 10.8313 3.20629 13.9643 7.02012 13.9643C9.07839 13.9643 10.6307 13.2825 11.8458 12.0056C13.0954 10.7457 13.483 8.97516 13.483 7.54395C13.483 7.10106 13.4495 6.69305 13.3814 6.35269H7.02012ZM18.625 12.1927C17.2748 12.1927 16.11 11.0691 16.11 9.46879C16.11 7.85049 17.2748 6.74379 18.625 6.74379C19.9741 6.74379 21.1389 7.85049 21.1389 9.46879C21.1389 11.0691 19.9741 12.1927 18.625 12.1927ZM18.625 4.97328C16.1603 4.97328 14.1523 6.86323 14.1523 9.46879C14.1523 12.0574 16.1603 13.9643 18.625 13.9643C21.0886 13.9643 23.0966 12.0574 23.0966 9.46879C23.0966 6.86323 21.0886 4.97328 18.625 4.97328ZM28.3801 12.1927C27.0299 12.1927 25.8651 11.0691 25.8651 9.46879C25.8651 7.85049 27.0299 6.74379 28.3801 6.74379C29.7302 6.74379 30.894 7.85049 30.894 9.46879C30.894 11.0691 29.7302 12.1927 28.3801 12.1927ZM28.3801 4.97328C25.9164 4.97328 23.9084 6.86323 23.9084 9.46879C23.9084 12.0574 25.9164 13.9643 28.3801 13.9643C30.8437 13.9643 32.8517 12.0574 32.8517 9.46879C32.8517 6.86323 30.8437 4.97328 28.3801 4.97328Z" fill="white"/>
</svg>
