<svg width="26" height="29" viewBox="0 0 26 29" fill="none" xmlns="http://www.w3.org/2000/svg">
<path d="M11.7662 13.7542L0.10791 26.4073C0.109005 26.4095 0.109005 26.4129 0.1101 26.4151C0.468159 27.789 1.69454 28.8002 3.15086 28.8002C3.73339 28.8002 4.27979 28.6389 4.74844 28.3568L4.78567 28.3344L17.9079 20.5913L11.7662 13.7542Z" fill="#EA4335"/>
<path d="M23.5595 11.5995L23.5486 11.5917L17.8831 8.2336L11.5005 14.0417L17.9061 20.59L23.5409 17.2654C24.5286 16.719 25.1998 15.6541 25.1998 14.4269C25.1998 13.2064 24.5384 12.1471 23.5595 11.5995Z" fill="#FBBC04"/>
<path d="M0.107308 2.39209C0.0372293 2.65635 0 2.93405 0 3.2207V25.5797C0 25.8664 0.0372293 26.1441 0.108403 26.4072L12.1663 14.0777L0.107308 2.39209Z" fill="#4285F4"/>
<path d="M11.8522 14.4001L17.8855 8.23148L4.77861 0.460464C4.30229 0.168211 3.74604 0.000250816 3.15147 0.000250816C1.69514 0.000250816 0.466575 1.01362 0.108516 2.38866C0.108516 2.38978 0.107422 2.3909 0.107422 2.39202L11.8522 14.4001Z" fill="#34A853"/>
</svg>
