<svg width="39" height="47" viewBox="0 0 39 47" fill="none" xmlns="http://www.w3.org/2000/svg">
<path d="M38.75 6.875V24.375C38.75 25.41 37.91 26.25 36.875 26.25C35.84 26.25 35 25.41 35 24.375V6.875C35 5.1525 33.5975 3.75 31.875 3.75H6.875C5.1525 3.75 3.75 5.1525 3.75 6.875V39.375C3.75 41.0975 5.1525 42.5 6.875 42.5H21.875C22.91 42.5 23.75 43.34 23.75 44.375C23.75 45.41 22.91 46.25 21.875 46.25H6.875C3.0825 46.25 0 43.1675 0 39.375V6.875C0 3.0825 3.0825 0 6.875 0H31.875C35.6675 0 38.75 3.0825 38.75 6.875ZM29.375 7.5H9.375C8.34 7.5 7.5 8.34 7.5 9.375C7.5 10.41 8.34 11.25 9.375 11.25H29.375C30.41 11.25 31.25 10.41 31.25 9.375C31.25 8.34 30.41 7.5 29.375 7.5ZM21.25 16.875C21.25 15.84 20.41 15 19.375 15H9.375C8.34 15 7.5 15.84 7.5 16.875C7.5 17.91 8.34 18.75 9.375 18.75H19.375C20.41 18.75 21.25 17.91 21.25 16.875ZM9.375 22.5C8.34 22.5 7.5 23.34 7.5 24.375C7.5 25.41 8.34 26.25 9.375 26.25H11.875C12.91 26.25 13.75 25.41 13.75 24.375C13.75 23.34 12.91 22.5 11.875 22.5H9.375Z" fill="#01081B"/>
</svg>
<svg width="29" height="29" viewBox="0 0 29 29" fill="none" xmlns="http://www.w3.org/2000/svg">
<g clip-path="url(#clip0_1_235)">
<path d="M10.9589 18.9589L14.9177 15M18.8766 11.0411L14.9177 15M14.9177 15L10.9589 11.0411M14.9177 15L18.8766 18.9589" stroke="#2E68FD" stroke-width="3.47504" stroke-linecap="round" stroke-linejoin="round"/>
<path d="M14.4998 26.5833C21.1733 26.5833 26.5832 21.1734 26.5832 14.5C26.5832 7.82652 21.1733 2.41663 14.4998 2.41663C7.8264 2.41663 2.4165 7.82652 2.4165 14.5C2.4165 21.1734 7.8264 26.5833 14.4998 26.5833Z" stroke="#2E68FD" stroke-width="3.86667" stroke-linecap="round" stroke-linejoin="round"/>
</g>
<defs>
<clipPath id="clip0_1_235">
<rect width="29" height="29" fill="white"/>
</clipPath>
</defs>
</svg>
